<svg xmlns="http://www.w3.org/2000/svg" width="600" height="400" viewBox="0 0 600 400">
  <!-- Background patterns -->
  <circle cx="100" cy="300" r="80" fill="#e11d48" opacity="0.1"/>
  <circle cx="500" cy="100" r="60" fill="#e11d48" opacity="0.1"/>
  <circle cx="300" cy="350" r="40" fill="#e11d48" opacity="0.2"/>

  <!-- Main device - laptop -->
  <rect x="150" y="100" width="300" height="200" rx="10" fill="#111111"/>
  <rect x="170" y="120" width="260" height="160" fill="#f8f8f8"/>

  <!-- Content on screen -->
  <rect x="190" y="140" width="100" height="15" rx="2" fill="#e11d48" opacity="0.8"/>
  <rect x="190" y="170" width="220" height="10" rx="2" fill="#333333" opacity="0.5"/>
  <rect x="190" y="190" width="180" height="10" rx="2" fill="#333333" opacity="0.5"/>
  <rect x="190" y="210" width="200" height="10" rx="2" fill="#333333" opacity="0.5"/>
  <rect x="190" y="240" width="80" height="25" rx="5" fill="#e11d48"/>

  <!-- Laptop base -->
  <path d="M120,300 L480,300 L450,350 L150,350 Z" fill="#111111"/>

  <!-- Mobile device -->
  <rect x="420" y="180" width="70" height="130" rx="8" fill="#111111"/>
  <rect x="425" y="190" width="60" height="100" fill="#f8f8f8"/>
  <rect x="435" y="200" width="40" height="10" rx="2" fill="#e11d48" opacity="0.8"/>
  <rect x="435" y="220" width="40" height="5" rx="1" fill="#333333" opacity="0.5"/>
  <rect x="435" y="230" width="35" height="5" rx="1" fill="#333333" opacity="0.5"/>
  <rect x="435" y="240" width="30" height="5" rx="1" fill="#333333" opacity="0.5"/>
  <rect x="445" y="270" width="20" height="10" rx="2" fill="#e11d48"/>
  <circle cx="450" cy="300" r="5" fill="#111111"/>
</svg> 